<svg xmlns="http://www.w3.org/2000/svg" width="1600" height="950" viewBox="0 0 1600 950">
<rect width="1600" height="950" fill="#f7f8fa"/>
<g opacity=".92">
  <path d="M0 720 C230 610 390 805 610 688 S980 542 1250 604 S1510 520 1600 470 L1600 950 L0 950 Z" fill="#06264d"/>
  <path d="M0 782 C260 666 405 842 640 725 S1020 595 1262 660 S1500 590 1600 548 L1600 950 L0 950 Z" fill="#0b766d" opacity=".72"/>
  <path d="M0 842 C260 760 410 906 665 804 S1040 690 1280 735 S1504 702 1600 650 L1600 950 L0 950 Z" fill="#b91c2b" opacity=".74"/>
</g>
<g stroke="#092b55" stroke-width="2" fill="none" opacity=".55">
  <path d="M210 470 C390 420 465 552 645 505 S915 330 1085 390 S1340 268 1510 315"/>
  <path d="M315 625 C465 574 570 630 720 564 S1004 476 1180 498 S1400 438 1545 470"/>
</g>
<g fill="#092b55">
  <circle cx="210" cy="470" r="9"/><circle cx="645" cy="505" r="12"/><circle cx="1085" cy="390" r="14"/><circle cx="1510" cy="315" r="9"/>
  <circle cx="315" cy="625" r="8"/><circle cx="720" cy="564" r="10"/><circle cx="1180" cy="498" r="13"/><circle cx="1545" cy="470" r="8"/>
</g>
<g fill="#b91c2b">
  <circle cx="475" cy="545" r="14"/><circle cx="910" cy="340" r="18"/><circle cx="1340" cy="268" r="16"/>
</g>
<g transform="translate(95 72)" stroke="#738093" fill="none" opacity=".58">
  <g stroke-width="2">
    <rect x="0" y="72" width="150" height="210"/><rect x="185" y="28" width="190" height="250"/><rect x="415" y="92" width="155" height="188"/>
    <path d="M18 112h112M18 154h112M18 196h112M18 238h112"/>
    <path d="M210 76h140M210 124h140M210 172h140M210 220h140"/>
    <path d="M438 128h108M438 170h108M438 212h108"/>
  </g>
</g>
<g transform="translate(1120 92)" opacity=".42">
  <rect x="0" y="250" width="30" height="150" fill="#0b766d"/><rect x="48" y="190" width="30" height="210" fill="#0b766d"/><rect x="96" y="135" width="30" height="265" fill="#0b766d"/>
  <rect x="144" y="75" width="30" height="325" fill="#b91c2b"/><rect x="192" y="20" width="30" height="380" fill="#0b766d"/>
</g>
<g fill="#b91c2b" opacity=".72">
  <circle cx="750" cy="238" r="42"/><circle cx="1010" cy="510" r="30"/><circle cx="1280" cy="435" r="22"/>
</g>
</svg>